M48
;DRILL file {KiCad 4.0.2-2.fc24-product} date Fri 09 Sep 2016 10:58:10 AEST
;FORMAT={-:-/ absolute / metric / decimal}
FMAT,2
METRIC,TZ
T1C0.400
T2C0.600
T3C0.750
T4C0.762
T5C1.001
T6C1.016
T7C1.270
T8C1.300
T9C3.000
%
G90
G05
M71
T1
X90.259Y-71.
X114.929Y-70.987
X120.Y-74.
X123.102Y-85.102
X124.3Y-67.31
X127.Y-83.
X133.865Y-63.5
X135.89Y-68.58
X143.51Y-68.58
X156.Y-80.
X168.Y-80.
X180.Y-80.
X192.Y-80.
X204.Y-80.
X216.Y-80.
T2
X154.73Y-84.27
X156.Y-83.
X156.Y-85.54
X166.73Y-84.27
X168.Y-83.
X168.Y-85.54
X178.73Y-84.27
X180.Y-83.
X180.Y-85.54
X190.73Y-84.27
X192.Y-83.
X192.Y-85.54
X202.73Y-84.27
X204.Y-83.
X204.Y-85.54
X214.73Y-84.27
X216.Y-83.
X216.Y-85.54
T3
X152.Y-57.5
X152.Y-77.8
X159.5Y-54.
X159.5Y-61.
X159.5Y-77.8
X164.Y-57.5
X164.Y-77.8
X171.5Y-54.
X171.5Y-61.
X171.5Y-77.8
X176.Y-57.5
X176.Y-77.8
X183.5Y-54.
X183.5Y-61.
X183.5Y-77.8
X188.Y-57.5
X188.Y-77.8
X195.5Y-54.
X195.5Y-61.
X195.5Y-77.8
X200.Y-57.5
X200.Y-77.8
X207.5Y-54.
X207.5Y-61.
X207.5Y-77.8
X212.Y-57.5
X212.Y-77.8
X219.5Y-54.
X219.5Y-61.
X219.5Y-77.8
T4
X116.68Y-71.76
X116.68Y-87.
X119.22Y-71.76
X119.22Y-87.
X121.76Y-71.76
X121.76Y-87.
X124.3Y-71.76
X124.3Y-87.
X126.84Y-71.76
X126.84Y-87.
X129.38Y-71.76
X129.38Y-87.
X131.92Y-71.76
X131.92Y-87.
X134.46Y-71.76
X134.46Y-87.
X137.Y-71.76
X137.Y-87.
X139.54Y-71.76
X139.54Y-87.
X142.08Y-71.76
X142.08Y-87.
X144.62Y-71.76
X144.62Y-87.
T5
X101.Y-46.
X101.Y-56.16
X101.Y-63.
X101.Y-73.16
X101.Y-80.
X101.Y-90.16
X105.Y-46.
X105.Y-56.16
X105.Y-63.
X105.Y-73.16
X105.Y-80.
X105.Y-90.16
X151.Y-82.
X151.Y-92.16
X160.Y-82.
X163.Y-82.
X163.Y-92.16
X172.Y-82.003
X175.Y-82.
X175.Y-92.16
X184.003Y-81.84
X187.Y-82.
X187.Y-92.16
X196.003Y-82.
X199.Y-82.
X199.Y-92.16
X208.Y-82.
X211.Y-82.
X211.Y-92.16
X220.173Y-82.
T6
X118.Y-60.
X120.54Y-60.
X123.08Y-60.
X125.62Y-60.
X128.16Y-60.
X130.7Y-60.
X133.24Y-60.
X135.78Y-60.
X138.32Y-60.
T7
X160.Y-92.16
X172.Y-92.163
X184.003Y-92.
X196.003Y-92.16
X208.Y-92.16
X220.173Y-92.16
T8
X94.Y-46.
X94.Y-51.
X94.Y-56.
X94.Y-63.
X94.Y-68.
X94.Y-73.
X94.Y-80.
X94.Y-85.
X94.Y-90.
X126.5Y-41.
X131.5Y-41.
X153.Y-41.
X158.Y-41.
X165.Y-41.
X170.Y-41.
X177.Y-41.
X182.Y-41.
X189.Y-41.
X194.Y-41.
X201.Y-41.
X206.Y-41.
X213.Y-41.
X218.Y-41.
T9
X91.Y-38.
X91.Y-97.
X224.Y-38.
X224.Y-97.
T0
M30
