G04 #@! TF.FileFunction,Copper,L2,Bot,Signal*
%FSLAX46Y46*%
G04 Gerber Fmt 4.6, Leading zero omitted, Abs format (unit mm)*
G04 Created by KiCad (PCBNEW 4.0.2-2.fc24-product) date Fri 09 Sep 2016 11:29:58 AEST*
%MOMM*%
G01*
G04 APERTURE LIST*
%ADD10C,0.100000*%
%ADD11C,1.500000*%
%ADD12C,1.998980*%
%ADD13R,1.998980X1.998980*%
%ADD14C,2.500000*%
%ADD15R,2.500000X2.500000*%
%ADD16C,1.000760*%
%ADD17R,1.727200X2.032000*%
%ADD18O,1.727200X2.032000*%
%ADD19C,1.524000*%
%ADD20C,0.600000*%
%ADD21C,0.250000*%
%ADD22C,0.500000*%
%ADD23C,2.500000*%
G04 APERTURE END LIST*
D10*
D11*
X164000000Y-77800000D03*
X171500000Y-77800000D03*
X164000000Y-57500000D03*
X171500000Y-61000000D03*
X171500000Y-54000000D03*
X200000000Y-77800000D03*
X207500000Y-77800000D03*
X200000000Y-57500000D03*
X207500000Y-61000000D03*
X207500000Y-54000000D03*
X176000000Y-77800000D03*
X183500000Y-77800000D03*
X176000000Y-57500000D03*
X183500000Y-61000000D03*
X183500000Y-54000000D03*
D12*
X175000000Y-82000000D03*
X175000000Y-92160000D03*
X160000000Y-92160000D03*
D13*
X160000000Y-82000000D03*
D12*
X172000000Y-92162540D03*
D13*
X172000000Y-82002540D03*
D12*
X184002540Y-92000000D03*
D13*
X184002540Y-81840000D03*
D12*
X196002540Y-92160000D03*
D13*
X196002540Y-82000000D03*
D12*
X208000000Y-92160000D03*
D13*
X208000000Y-82000000D03*
D12*
X220172540Y-92160000D03*
D13*
X220172540Y-82000000D03*
D14*
X94000000Y-46000000D03*
D15*
X94000000Y-56000000D03*
D14*
X94000000Y-51000000D03*
X94000000Y-63000000D03*
D15*
X94000000Y-73000000D03*
D14*
X94000000Y-68000000D03*
X94000000Y-80000000D03*
D15*
X94000000Y-90000000D03*
D14*
X94000000Y-85000000D03*
D15*
X126500000Y-41000000D03*
D14*
X131500000Y-41000000D03*
D16*
X154730000Y-84270000D03*
X156000000Y-83000000D03*
X156000000Y-85540000D03*
X166730000Y-84270000D03*
X168000000Y-83000000D03*
X168000000Y-85540000D03*
X178730000Y-84270000D03*
X180000000Y-83000000D03*
X180000000Y-85540000D03*
X190730000Y-84270000D03*
X192000000Y-83000000D03*
X192000000Y-85540000D03*
X202730000Y-84270000D03*
X204000000Y-83000000D03*
X204000000Y-85540000D03*
X214730000Y-84270000D03*
X216000000Y-83000000D03*
X216000000Y-85540000D03*
D12*
X101000000Y-46000000D03*
X101000000Y-56160000D03*
X101000000Y-63000000D03*
X101000000Y-73160000D03*
X101000000Y-80000000D03*
X101000000Y-90160000D03*
X105000000Y-56160000D03*
X105000000Y-46000000D03*
X105000000Y-73160000D03*
X105000000Y-63000000D03*
X105000000Y-90160000D03*
X105000000Y-80000000D03*
X151000000Y-82000000D03*
X151000000Y-92160000D03*
X163000000Y-82000000D03*
X163000000Y-92160000D03*
X187000000Y-82000000D03*
X187000000Y-92160000D03*
X199000000Y-82000000D03*
X199000000Y-92160000D03*
X211000000Y-82000000D03*
X211000000Y-92160000D03*
D11*
X152000000Y-77800000D03*
X159500000Y-77800000D03*
X152000000Y-57500000D03*
X159500000Y-61000000D03*
X159500000Y-54000000D03*
X188000000Y-77800000D03*
X195500000Y-77800000D03*
X188000000Y-57500000D03*
X195500000Y-61000000D03*
X195500000Y-54000000D03*
X212000000Y-77800000D03*
X219500000Y-77800000D03*
X212000000Y-57500000D03*
X219500000Y-61000000D03*
X219500000Y-54000000D03*
D15*
X158000000Y-41000000D03*
D14*
X153000000Y-41000000D03*
D15*
X170000000Y-41000000D03*
D14*
X165000000Y-41000000D03*
D15*
X182000000Y-41000000D03*
D14*
X177000000Y-41000000D03*
D15*
X206000000Y-41000000D03*
D14*
X201000000Y-41000000D03*
D15*
X218000000Y-41000000D03*
D14*
X213000000Y-41000000D03*
D15*
X194000000Y-41000000D03*
D14*
X189000000Y-41000000D03*
D17*
X118000000Y-60000000D03*
D18*
X120540000Y-60000000D03*
X123080000Y-60000000D03*
X125620000Y-60000000D03*
X128160000Y-60000000D03*
X130700000Y-60000000D03*
X133240000Y-60000000D03*
X135780000Y-60000000D03*
X138320000Y-60000000D03*
D19*
X116680000Y-87000000D03*
X119220000Y-87000000D03*
X121760000Y-87000000D03*
X124300000Y-87000000D03*
X126840000Y-87000000D03*
X129380000Y-87000000D03*
X131920000Y-87000000D03*
X134460000Y-87000000D03*
X137000000Y-87000000D03*
X139540000Y-87000000D03*
X142080000Y-87000000D03*
X144620000Y-87000000D03*
X116680000Y-71760000D03*
X119220000Y-71760000D03*
X121760000Y-71760000D03*
X124300000Y-71760000D03*
X126840000Y-71760000D03*
X129380000Y-71760000D03*
X131920000Y-71760000D03*
X134460000Y-71760000D03*
X137000000Y-71760000D03*
X139540000Y-71760000D03*
X142080000Y-71760000D03*
X144620000Y-71760000D03*
D20*
X114929164Y-70986810D03*
X90259469Y-71000000D03*
X156000000Y-80000000D03*
X168000000Y-80000000D03*
X180000000Y-80000000D03*
X192000000Y-80000000D03*
X204000000Y-80000000D03*
X216000000Y-80000000D03*
X127000000Y-83000000D03*
X123101809Y-85101809D03*
X120000000Y-74000000D03*
X143510000Y-68580000D03*
X135890000Y-68580000D03*
X124300000Y-67310000D03*
X133865010Y-63500000D03*
D21*
X152000000Y-77800000D02*
X152000000Y-80318435D01*
X152000000Y-80318435D02*
X156000000Y-84318435D01*
X156000000Y-84832356D02*
X156000000Y-85540000D01*
X156000000Y-84318435D02*
X156000000Y-84832356D01*
X156000000Y-85540000D02*
X160000000Y-89540000D01*
X160000000Y-89540000D02*
X160000000Y-92160000D01*
D22*
X160091026Y-76271768D02*
X150471768Y-76271768D01*
X150471768Y-76271768D02*
X146535839Y-72335839D01*
X146535839Y-72335839D02*
X146535839Y-53999487D01*
X146535839Y-53999487D02*
X133536352Y-41000000D01*
X133536352Y-41000000D02*
X131500000Y-41000000D01*
X159500000Y-77800000D02*
X160249999Y-77050001D01*
X160249999Y-77050001D02*
X160249999Y-76430741D01*
X160249999Y-76430741D02*
X160091026Y-76271768D01*
X161255680Y-77436422D02*
X160091026Y-76271768D01*
X171500000Y-77800000D02*
X172249999Y-77050001D01*
X172249999Y-77050001D02*
X172249999Y-76422757D01*
X172249999Y-76422757D02*
X172099010Y-76271768D01*
X173250277Y-77423035D02*
X172099010Y-76271768D01*
X183500000Y-77800000D02*
X184249999Y-77050001D01*
X184249999Y-77050001D02*
X184249999Y-76436616D01*
X184249999Y-76436616D02*
X184090083Y-76276700D01*
X195500000Y-77800000D02*
X196249999Y-77050001D01*
X196249999Y-77050001D02*
X196249999Y-76390822D01*
X196249999Y-76390822D02*
X196107694Y-76248517D01*
X207500000Y-77800000D02*
X208249999Y-77050001D01*
X208249999Y-77050001D02*
X208249999Y-76402561D01*
X208249999Y-76402561D02*
X208095955Y-76248517D01*
X219500000Y-77800000D02*
X220249999Y-77050001D01*
X220249999Y-77050001D02*
X220249999Y-76410784D01*
X220249999Y-76410784D02*
X220087732Y-76248517D01*
X94000000Y-56000000D02*
X92352809Y-56000000D01*
X95603112Y-38226119D02*
X128726119Y-38226119D01*
X128726119Y-38226119D02*
X129500000Y-39000000D01*
X92352809Y-56000000D02*
X90232686Y-53879877D01*
X90232686Y-53879877D02*
X90232686Y-43596545D01*
X90232686Y-43596545D02*
X95603112Y-38226119D01*
X129500000Y-39000000D02*
X131500000Y-41000000D01*
X189551483Y-76248517D02*
X184118266Y-76248517D01*
X184118266Y-76248517D02*
X184090083Y-76276700D01*
X202000000Y-76262609D02*
X201537391Y-76262609D01*
X208081863Y-76262609D02*
X202000000Y-76262609D01*
X202000000Y-76262609D02*
X196121786Y-76262609D01*
X196121786Y-76262609D02*
X196107694Y-76248517D01*
X213551483Y-76248517D02*
X208095955Y-76248517D01*
X208095955Y-76248517D02*
X208081863Y-76262609D01*
X116680000Y-71760000D02*
X115906810Y-70986810D01*
X115353428Y-70986810D02*
X114929164Y-70986810D01*
X115906810Y-70986810D02*
X115353428Y-70986810D01*
X90259469Y-57990531D02*
X90259469Y-71000000D01*
X90259469Y-71000000D02*
X90259469Y-71259469D01*
X160091026Y-76271768D02*
X165528232Y-76271768D01*
X172099010Y-76271768D02*
X177518368Y-76271768D01*
X177518368Y-76271768D02*
X177523300Y-76276700D01*
X201523300Y-76276700D02*
X201537391Y-76262609D01*
X213537391Y-76262609D02*
X213551483Y-76248517D01*
X196002540Y-82000000D02*
X196002540Y-80327446D01*
X196002540Y-80327446D02*
X197235006Y-79094980D01*
X197235006Y-79094980D02*
X197235006Y-77375829D01*
X197235006Y-77375829D02*
X196107694Y-76248517D01*
X196107694Y-76248517D02*
X189551483Y-76248517D01*
X220172540Y-82000000D02*
X220172540Y-80207941D01*
X220172540Y-80207941D02*
X221257319Y-79123162D01*
X221257319Y-79123162D02*
X221257319Y-77418104D01*
X221257319Y-77418104D02*
X220087732Y-76248517D01*
X220087732Y-76248517D02*
X213551483Y-76248517D01*
X208000000Y-82000000D02*
X208000000Y-80360519D01*
X208000000Y-80360519D02*
X209251449Y-79109070D01*
X209251449Y-79109070D02*
X209251449Y-77432195D01*
X209251449Y-77432195D02*
X208081863Y-76262609D01*
X184002540Y-81840000D02*
X184002540Y-80380292D01*
X184002540Y-80380292D02*
X185245578Y-79137254D01*
X184090083Y-76276700D02*
X177523300Y-76276700D01*
X185245578Y-79137254D02*
X185245578Y-77432195D01*
X185245578Y-77432195D02*
X184090083Y-76276700D01*
X172000000Y-82002540D02*
X172000000Y-80360053D01*
X172000000Y-80360053D02*
X173250277Y-79109776D01*
X173250277Y-79109776D02*
X173250277Y-77423035D01*
X172099010Y-76271768D02*
X165528232Y-76271768D01*
X160000000Y-82000000D02*
X160000000Y-80392229D01*
X160000000Y-80392229D02*
X161255680Y-79136549D01*
X161255680Y-79136549D02*
X161255680Y-77436422D01*
X94000000Y-56000000D02*
X92250000Y-56000000D01*
X92250000Y-56000000D02*
X90259469Y-57990531D01*
X90259469Y-71259469D02*
X92000000Y-73000000D01*
X92000000Y-73000000D02*
X90259868Y-74740132D01*
X90259868Y-74740132D02*
X90259868Y-88259868D01*
X90259868Y-88259868D02*
X92000000Y-90000000D01*
X92000000Y-90000000D02*
X94000000Y-90000000D01*
X92000000Y-73000000D02*
X94000000Y-73000000D01*
D21*
X164000000Y-77800000D02*
X164000000Y-80221565D01*
X164000000Y-80221565D02*
X168000000Y-84221565D01*
X168000000Y-84221565D02*
X168000000Y-84832356D01*
X168000000Y-84832356D02*
X168000000Y-85540000D01*
X168000000Y-85540000D02*
X172000000Y-89540000D01*
X172000000Y-89540000D02*
X172000000Y-92162540D01*
X176000000Y-77800000D02*
X176000000Y-80221565D01*
X180000000Y-84221565D02*
X180000000Y-84832356D01*
X176000000Y-80221565D02*
X180000000Y-84221565D01*
X180000000Y-84832356D02*
X180000000Y-85540000D01*
X180000000Y-85540000D02*
X184002540Y-89542540D01*
X184002540Y-89542540D02*
X184002540Y-92000000D01*
X188000000Y-77800000D02*
X188000000Y-80318435D01*
X188000000Y-80318435D02*
X192000000Y-84318435D01*
X192000000Y-84318435D02*
X192000000Y-84832356D01*
X192000000Y-84832356D02*
X192000000Y-85540000D01*
X192000000Y-85540000D02*
X196002540Y-89542540D01*
X196002540Y-89542540D02*
X196002540Y-92160000D01*
X200000000Y-77800000D02*
X200000000Y-80221565D01*
X200000000Y-80221565D02*
X204000000Y-84221565D01*
X204000000Y-84221565D02*
X204000000Y-84832356D01*
X204000000Y-84832356D02*
X204000000Y-85540000D01*
X204000000Y-85540000D02*
X208000000Y-89540000D01*
X208000000Y-89540000D02*
X208000000Y-92160000D01*
X212000000Y-77800000D02*
X212000000Y-80318435D01*
X216000000Y-84318435D02*
X216000000Y-84832356D01*
X212000000Y-80318435D02*
X216000000Y-84318435D01*
X216000000Y-84832356D02*
X216000000Y-85540000D01*
X216000000Y-85540000D02*
X220172540Y-89712540D01*
X220172540Y-89712540D02*
X220172540Y-92160000D01*
X101000000Y-46000000D02*
X105000000Y-46000000D01*
X94000000Y-46000000D02*
X101000000Y-46000000D01*
D22*
X94000000Y-51000000D02*
X91243997Y-48243997D01*
X91243997Y-48243997D02*
X91243997Y-44105288D01*
X91243997Y-44105288D02*
X95293603Y-40055682D01*
X95293603Y-40055682D02*
X125555682Y-40055682D01*
X125555682Y-40055682D02*
X126500000Y-41000000D01*
X120540000Y-49710000D02*
X126500000Y-43750000D01*
X126500000Y-43750000D02*
X126500000Y-41000000D01*
X156000000Y-83000000D02*
X156000000Y-80000000D01*
X168000000Y-83000000D02*
X168000000Y-80000000D01*
X180000000Y-83000000D02*
X180000000Y-80000000D01*
X192000000Y-83000000D02*
X192000000Y-80000000D01*
X204000000Y-83000000D02*
X204000000Y-80000000D01*
X216000000Y-80000000D02*
X216000000Y-83000000D01*
X125061999Y-84938001D02*
X127000000Y-83000000D01*
X124300000Y-87000000D02*
X125061999Y-86238001D01*
X125061999Y-86238001D02*
X125061999Y-84938001D01*
X124300000Y-87000000D02*
X123101809Y-85801809D01*
X123101809Y-85526073D02*
X123101809Y-85101809D01*
X123101809Y-85801809D02*
X123101809Y-85526073D01*
X119220000Y-71760000D02*
X119220000Y-65220000D01*
X119220000Y-65220000D02*
X116019807Y-62019807D01*
X116019807Y-62019807D02*
X116019807Y-58605586D01*
X116019807Y-58605586D02*
X116705604Y-57919789D01*
X116705604Y-57919789D02*
X118612189Y-57919789D01*
X118612189Y-57919789D02*
X120540000Y-59847600D01*
X120540000Y-59847600D02*
X120540000Y-60000000D01*
X119220000Y-71760000D02*
X119220000Y-73220000D01*
X119220000Y-73220000D02*
X120000000Y-74000000D01*
X120540000Y-60000000D02*
X120540000Y-49710000D01*
X94000000Y-51000000D02*
X96261998Y-53261998D01*
X96261998Y-53261998D02*
X96261998Y-57337449D01*
X92750001Y-66750001D02*
X94000000Y-68000000D01*
X96261998Y-57337449D02*
X91254146Y-62345301D01*
X91254146Y-65254146D02*
X92750001Y-66750001D01*
X91254146Y-62345301D02*
X91254146Y-65254146D01*
X94000000Y-68000000D02*
X94015889Y-68000000D01*
X94015889Y-68000000D02*
X96241672Y-70225783D01*
X96241672Y-70225783D02*
X96241672Y-74348627D01*
X96241672Y-74348627D02*
X91250477Y-79339822D01*
X91250477Y-79339822D02*
X91250477Y-82250477D01*
X91250477Y-82250477D02*
X92750001Y-83750001D01*
X92750001Y-83750001D02*
X94000000Y-85000000D01*
X101000000Y-88000000D02*
X101000000Y-90160000D01*
X98000000Y-85000000D02*
X101000000Y-88000000D01*
X94000000Y-85000000D02*
X98000000Y-85000000D01*
X101000000Y-71000000D02*
X101000000Y-73160000D01*
X98000000Y-68000000D02*
X101000000Y-71000000D01*
X94000000Y-68000000D02*
X98000000Y-68000000D01*
X101000000Y-54000000D02*
X101000000Y-56160000D01*
X98000000Y-51000000D02*
X101000000Y-54000000D01*
X94000000Y-51000000D02*
X98000000Y-51000000D01*
D21*
X101000000Y-63000000D02*
X105000000Y-63000000D01*
X94000000Y-63000000D02*
X101000000Y-63000000D01*
X101000000Y-80000000D02*
X105000000Y-80000000D01*
X94000000Y-80000000D02*
X101000000Y-80000000D01*
D23*
X158000000Y-41000000D02*
X158000000Y-52500000D01*
X158000000Y-52500000D02*
X159500000Y-54000000D01*
X153000000Y-41000000D02*
X153000000Y-56500000D01*
X153000000Y-56500000D02*
X152000000Y-57500000D01*
X170000000Y-41000000D02*
X170000000Y-52500000D01*
X170000000Y-52500000D02*
X171500000Y-54000000D01*
X165000000Y-41000000D02*
X165000000Y-56500000D01*
X165000000Y-56500000D02*
X164000000Y-57500000D01*
X182000000Y-41000000D02*
X182000000Y-52500000D01*
X182000000Y-52500000D02*
X183500000Y-54000000D01*
X177000000Y-41000000D02*
X177000000Y-56500000D01*
X177000000Y-56500000D02*
X176000000Y-57500000D01*
X206000000Y-41000000D02*
X206000000Y-52500000D01*
X206000000Y-52500000D02*
X207500000Y-54000000D01*
X201000000Y-41000000D02*
X201000000Y-56500000D01*
X201000000Y-56500000D02*
X200000000Y-57500000D01*
X218000000Y-41000000D02*
X218000000Y-52500000D01*
X218000000Y-52500000D02*
X219500000Y-54000000D01*
X213000000Y-41000000D02*
X213000000Y-56500000D01*
X213000000Y-56500000D02*
X212000000Y-57500000D01*
X194000000Y-41000000D02*
X194000000Y-52500000D01*
X194000000Y-52500000D02*
X195500000Y-54000000D01*
X189000000Y-41000000D02*
X189000000Y-56500000D01*
X189000000Y-56500000D02*
X188000000Y-57500000D01*
D21*
X151000000Y-82000000D02*
X152460000Y-82000000D01*
X152460000Y-82000000D02*
X154730000Y-84270000D01*
X163000000Y-82000000D02*
X164460000Y-82000000D01*
X164460000Y-82000000D02*
X166730000Y-84270000D01*
X175000000Y-82000000D02*
X176460000Y-82000000D01*
X176460000Y-82000000D02*
X178730000Y-84270000D01*
X190730000Y-84270000D02*
X189270000Y-84270000D01*
X189270000Y-84270000D02*
X187000000Y-82000000D01*
X199000000Y-82000000D02*
X200460000Y-82000000D01*
X200460000Y-82000000D02*
X202730000Y-84270000D01*
X214730000Y-84270000D02*
X213270000Y-84270000D01*
X213270000Y-84270000D02*
X211000000Y-82000000D01*
X105000000Y-56160000D02*
X113296087Y-64456087D01*
X113296087Y-64456087D02*
X113296087Y-71954047D01*
X113296087Y-71954047D02*
X115967042Y-74625002D01*
X125903099Y-74625002D02*
X128142780Y-72385321D01*
X115967042Y-74625002D02*
X125903099Y-74625002D01*
X128142780Y-72385321D02*
X128142780Y-70844234D01*
X128142780Y-70844234D02*
X129092351Y-69894663D01*
X129092351Y-69894663D02*
X133672293Y-69894663D01*
X133672293Y-69894663D02*
X134460000Y-70682370D01*
X134460000Y-70682370D02*
X134460000Y-71760000D01*
X105000000Y-73160000D02*
X107191049Y-75351049D01*
X107191049Y-75351049D02*
X128328951Y-75351049D01*
X128328951Y-75351049D02*
X131158001Y-72521999D01*
X131158001Y-72521999D02*
X131920000Y-71760000D01*
X133199154Y-70945326D02*
X132598502Y-70344674D01*
X130141999Y-70998001D02*
X129380000Y-71760000D01*
X130795326Y-70344674D02*
X130141999Y-70998001D01*
X132598502Y-70344674D02*
X130795326Y-70344674D01*
X116655480Y-78504520D02*
X127454970Y-78504520D01*
X133199154Y-72760336D02*
X133199154Y-70945326D01*
X127454970Y-78504520D02*
X133199154Y-72760336D01*
X105000000Y-90160000D02*
X116655480Y-78504520D01*
X151000000Y-92160000D02*
X144700000Y-92160000D01*
X144700000Y-92160000D02*
X139540000Y-87000000D01*
X143954028Y-93954028D02*
X137761999Y-87761999D01*
X137761999Y-87761999D02*
X137000000Y-87000000D01*
X163000000Y-92160000D02*
X161205972Y-93954028D01*
X161205972Y-93954028D02*
X143954028Y-93954028D01*
X137160000Y-87160000D02*
X137000000Y-87000000D01*
X135221999Y-87761999D02*
X134460000Y-87000000D01*
X142261758Y-94801758D02*
X135221999Y-87761999D01*
X172358242Y-94801758D02*
X142261758Y-94801758D01*
X175000000Y-92160000D02*
X172358242Y-94801758D01*
X132681999Y-87761999D02*
X131920000Y-87000000D01*
X140696647Y-95776647D02*
X132681999Y-87761999D01*
X183383353Y-95776647D02*
X140696647Y-95776647D01*
X187000000Y-92160000D02*
X183383353Y-95776647D01*
X130141999Y-87761999D02*
X129380000Y-87000000D01*
X139216310Y-96836310D02*
X130141999Y-87761999D01*
X194323690Y-96836310D02*
X139216310Y-96836310D01*
X199000000Y-92160000D02*
X194323690Y-96836310D01*
X127601999Y-87761999D02*
X126840000Y-87000000D01*
X137640037Y-97800037D02*
X127601999Y-87761999D01*
X205359963Y-97800037D02*
X137640037Y-97800037D01*
X211000000Y-92160000D02*
X205359963Y-97800037D01*
X121760000Y-87000000D02*
X121760000Y-85559706D01*
X132576588Y-69105198D02*
X125620000Y-62148610D01*
X121760000Y-85559706D02*
X134222419Y-73097287D01*
X135738401Y-72339295D02*
X135738401Y-70883951D01*
X134222419Y-73097287D02*
X134980409Y-73097287D01*
X134980409Y-73097287D02*
X135738401Y-72339295D01*
X135738401Y-70883951D02*
X133959648Y-69105198D01*
X133959648Y-69105198D02*
X132576588Y-69105198D01*
X125620000Y-62148610D02*
X125620000Y-60000000D01*
X143510000Y-68580000D02*
X143510000Y-85890000D01*
X143510000Y-85890000D02*
X144620000Y-87000000D01*
X128160000Y-60000000D02*
X128160000Y-60152400D01*
X128160000Y-60152400D02*
X135890000Y-67882400D01*
X135890000Y-67882400D02*
X135890000Y-68580000D01*
X144620000Y-71760000D02*
X144620000Y-60974503D01*
X144620000Y-60974503D02*
X140679682Y-57034185D01*
X140679682Y-57034185D02*
X125893415Y-57034185D01*
X125893415Y-57034185D02*
X123080000Y-59847600D01*
X123080000Y-59847600D02*
X123080000Y-60000000D01*
X130700000Y-60000000D02*
X130700000Y-59847600D01*
X132400046Y-58147554D02*
X140413973Y-58147554D01*
X130700000Y-59847600D02*
X132400046Y-58147554D01*
X140413973Y-58147554D02*
X142080000Y-59813581D01*
X142080000Y-59813581D02*
X142080000Y-70682370D01*
X142080000Y-70682370D02*
X142080000Y-71760000D01*
X138320000Y-66320000D02*
X139540000Y-67540000D01*
X139540000Y-67540000D02*
X139540000Y-71760000D01*
X138320000Y-60000000D02*
X138320000Y-66320000D01*
X133240000Y-60000000D02*
X133240000Y-63976332D01*
X133240000Y-63976332D02*
X137000000Y-67736332D01*
X137000000Y-67736332D02*
X137000000Y-71760000D01*
D22*
X124300000Y-66452400D02*
X124300000Y-67310000D01*
X124300000Y-67310000D02*
X124300000Y-70682370D01*
X135780000Y-60000000D02*
X135780000Y-61585010D01*
X135780000Y-61585010D02*
X133865010Y-63500000D01*
X124300000Y-70682370D02*
X124300000Y-71760000D01*
X118000000Y-60152400D02*
X124300000Y-66452400D01*
X118000000Y-60000000D02*
X118000000Y-60152400D01*
M02*
