G04 #@! TF.FileFunction,Legend,Bot*
%FSLAX46Y46*%
G04 Gerber Fmt 4.6, Leading zero omitted, Abs format (unit mm)*
G04 Created by KiCad (PCBNEW 4.0.2-2.fc24-product) date Fri 09 Sep 2016 11:29:58 AEST*
%MOMM*%
G01*
G04 APERTURE LIST*
%ADD10C,0.100000*%
%ADD11C,0.150000*%
G04 APERTURE END LIST*
D10*
D11*
X162500000Y-79300000D02*
X173000000Y-79300000D01*
X162500000Y-52500000D02*
X162500000Y-79300000D01*
X173000000Y-52500000D02*
X162500000Y-52500000D01*
X173000000Y-79300000D02*
X173000000Y-52500000D01*
X198500000Y-79300000D02*
X209000000Y-79300000D01*
X198500000Y-52500000D02*
X198500000Y-79300000D01*
X209000000Y-52500000D02*
X198500000Y-52500000D01*
X209000000Y-79300000D02*
X209000000Y-52500000D01*
X174500000Y-79300000D02*
X185000000Y-79300000D01*
X174500000Y-52500000D02*
X174500000Y-79300000D01*
X185000000Y-52500000D02*
X174500000Y-52500000D01*
X185000000Y-79300000D02*
X185000000Y-52500000D01*
X150500000Y-79300000D02*
X161000000Y-79300000D01*
X150500000Y-52500000D02*
X150500000Y-79300000D01*
X161000000Y-52500000D02*
X150500000Y-52500000D01*
X161000000Y-79300000D02*
X161000000Y-52500000D01*
X186500000Y-79300000D02*
X197000000Y-79300000D01*
X186500000Y-52500000D02*
X186500000Y-79300000D01*
X197000000Y-52500000D02*
X186500000Y-52500000D01*
X197000000Y-79300000D02*
X197000000Y-52500000D01*
X210500000Y-79300000D02*
X221000000Y-79300000D01*
X210500000Y-52500000D02*
X210500000Y-79300000D01*
X221000000Y-52500000D02*
X210500000Y-52500000D01*
X221000000Y-79300000D02*
X221000000Y-52500000D01*
X216738095Y-51952381D02*
X216738095Y-50952381D01*
X216166666Y-51952381D02*
X216595238Y-51380952D01*
X216166666Y-50952381D02*
X216738095Y-51523810D01*
X215309523Y-50952381D02*
X215500000Y-50952381D01*
X215595238Y-51000000D01*
X215642857Y-51047619D01*
X215738095Y-51190476D01*
X215785714Y-51380952D01*
X215785714Y-51761905D01*
X215738095Y-51857143D01*
X215690476Y-51904762D01*
X215595238Y-51952381D01*
X215404761Y-51952381D01*
X215309523Y-51904762D01*
X215261904Y-51857143D01*
X215214285Y-51761905D01*
X215214285Y-51523810D01*
X215261904Y-51428571D01*
X215309523Y-51380952D01*
X215404761Y-51333333D01*
X215595238Y-51333333D01*
X215690476Y-51380952D01*
X215738095Y-51428571D01*
X215785714Y-51523810D01*
M02*
